<svg version="1.1" preserveAspectRatio="none" xmlns="http://www.w3.org/2000/svg" width="500" height="500" viewBox="0 0 500 500"><rect width="100%" height="100%" fill="#FFFFFF" fill-opacity="1"/><svg viewBox="316.223 401.9887 583.7076 164" width="333" height="93.56054298419278" x="83.5px" y="203.2197px" xmlns="http://www.w3.org/2000/svg" xmlns:xlink="http://www.w3.org/1999/xlink" preserveAspectRatio="none"><defs></defs><style>.companyName {fill:#182145;fill-opacity:1;}.icon1 {fill:#182145;fill-opacity:1;}.icon2 {fill:#E35B34;fill-opacity:1;}.icon3 {fill:#E3D454;fill-opacity:1;}.icon3-str {stroke:#E3D454;stroke-opacity:1;}.text {fill:#182145;fill-opacity:1;}</style><g opacity="1" transform="rotate(0 316.223 401.9887)">
<svg width="171.1305" height="164" x="316.223" y="401.9887" version="1.1" preserveAspectRatio="none" viewBox="20 24.5 60 57.5">
  <g transform="matrix(1 0 0 1 0 0)" class="icon1"><g><polygon points="35.3235893,54 48.75,48 32.3235893,37.5737 20,47.1587982 20,82 33.8235893,82 51.4940872,68.5  "></polygon><polygon points="44.25,55.5 66.75,71.5 59.384388,82 80,82 80,45.6587982 67.2744904,34.3785019  "></polygon><circle cx="51.75" cy="31.25" r="6.75"></circle></g></g>
</svg>
</g><g opacity="1" transform="rotate(0 517.3535 541.9887)">
<svg width="267.6935" height="24" x="517.3535" y="541.9887" version="1.1" preserveAspectRatio="none" viewBox="1.76 -30.88 431.08 38.64">
  <g transform="matrix(1 0 0 1 0 0)" class="text"><path id="id-6izo4zJp20" d="M30.92-0.08L33.32 2.80Q31.92 4.44 30.06 5.28Q28.20 6.12 26 6.12L26 6.12Q23.12 6.12 20.72 4.82Q18.32 3.52 15.24 0.32L15.24 0.32Q11.36 0 8.28-1.94Q5.20-3.88 3.48-7.02Q1.76-10.16 1.76-14L1.76-14Q1.76-18.08 3.72-21.38Q5.68-24.68 9.12-26.54Q12.56-28.40 16.84-28.40L16.84-28.40Q21.12-28.40 24.56-26.54Q28-24.68 29.96-21.40Q31.92-18.12 31.92-14L31.92-14Q31.92-10.68 30.60-7.86Q29.28-5.04 26.92-3.06Q24.56-1.08 21.44-0.20L21.44-0.20Q22.60 1.04 23.72 1.60Q24.84 2.16 26.12 2.16L26.12 2.16Q28.88 2.16 30.92-0.08L30.92-0.08ZM7-14Q7-11.20 8.28-8.94Q9.56-6.68 11.80-5.42Q14.04-4.16 16.84-4.16L16.84-4.16Q19.64-4.16 21.88-5.42Q24.12-6.68 25.40-8.94Q26.68-11.20 26.68-14L26.68-14Q26.68-16.80 25.40-19.06Q24.12-21.32 21.88-22.58Q19.64-23.84 16.84-23.84L16.84-23.84Q14.04-23.84 11.80-22.58Q9.56-21.32 8.28-19.06Q7-16.80 7-14L7-14Z M53.84-21.36L58.84-21.36L58.84 0L54.08 0L54.08-2.72Q52.88-1.28 51.08-0.50Q49.28 0.28 47.20 0.28L47.20 0.28Q42.92 0.28 40.46-2.10Q38-4.48 38-9.16L38-9.16L38-21.36L43-21.36L43-9.84Q43-6.96 44.30-5.54Q45.60-4.12 48-4.12L48-4.12Q50.68-4.12 52.26-5.78Q53.84-7.44 53.84-10.56L53.84-10.56L53.84-21.36Z M74.76-21.60Q79.48-21.60 81.98-19.34Q84.48-17.08 84.48-12.52L84.48-12.52L84.48 0L79.76 0L79.76-2.60Q78.84-1.20 77.14-0.46Q75.44 0.28 73.04 0.28L73.04 0.28Q70.64 0.28 68.84-0.54Q67.04-1.36 66.06-2.82Q65.08-4.28 65.08-6.12L65.08-6.12Q65.08-9 67.22-10.74Q69.36-12.48 73.96-12.48L73.96-12.48L79.48-12.48L79.48-12.80Q79.48-15.04 78.14-16.24Q76.80-17.44 74.16-17.44L74.16-17.44Q72.36-17.44 70.62-16.88Q68.88-16.32 67.68-15.32L67.68-15.32L65.72-18.96Q67.40-20.24 69.76-20.92Q72.12-21.60 74.76-21.60L74.76-21.60ZM74.08-3.36Q75.96-3.36 77.42-4.22Q78.88-5.08 79.48-6.68L79.48-6.68L79.48-9.16L74.32-9.16Q70-9.16 70-6.32L70-6.32Q70-4.96 71.08-4.16Q72.16-3.36 74.08-3.36L74.08-3.36Z M92.08 0L92.08-29.68L97.08-29.68L97.08 0L92.08 0Z M104.84 0L104.84-21.36L109.84-21.36L109.84 0L104.84 0ZM107.36-24.88Q106.00-24.88 105.08-25.74Q104.16-26.60 104.16-27.88L104.16-27.88Q104.16-29.16 105.08-30.02Q106.00-30.88 107.36-30.88L107.36-30.88Q108.72-30.88 109.64-30.06Q110.56-29.24 110.56-28L110.56-28Q110.56-26.68 109.66-25.78Q108.76-24.88 107.36-24.88L107.36-24.88Z M129.04-4.72L130.44-1.16Q129.56-0.44 128.30-0.08Q127.04 0.28 125.64 0.28L125.64 0.28Q122.12 0.28 120.20-1.56Q118.28-3.40 118.28-6.92L118.28-6.92L118.28-17.20L114.76-17.20L114.76-21.20L118.28-21.20L118.28-26.08L123.28-26.08L123.28-21.20L129.00-21.20L129.00-17.20L123.28-17.20L123.28-7.04Q123.28-5.48 124.04-4.66Q124.80-3.84 126.24-3.84L126.24-3.84Q127.92-3.84 129.04-4.72L129.04-4.72Z M155.12-10.56Q155.12-10.04 155.04-9.08L155.04-9.08L138.28-9.08Q138.72-6.72 140.58-5.34Q142.44-3.96 145.20-3.96L145.20-3.96Q148.72-3.96 151.00-6.28L151.00-6.28L153.68-3.20Q152.24-1.48 150.04-0.60Q147.84 0.28 145.08 0.28L145.08 0.28Q141.56 0.28 138.88-1.12Q136.20-2.52 134.74-5.02Q133.28-7.52 133.28-10.68L133.28-10.68Q133.28-13.80 134.70-16.30Q136.12-18.80 138.64-20.20Q141.16-21.60 144.32-21.60L144.32-21.60Q147.44-21.60 149.90-20.22Q152.36-18.84 153.74-16.34Q155.12-13.84 155.12-10.56L155.12-10.56ZM144.32-17.60Q141.92-17.60 140.26-16.18Q138.60-14.76 138.24-12.40L138.24-12.40L150.36-12.40Q150.04-14.72 148.40-16.16Q146.76-17.60 144.32-17.60L144.32-17.60ZM140.84-24.28L146.24-29.76L152.12-29.76L145.16-24.28L140.84-24.28Z M193.44-10.56Q193.44-10.04 193.36-9.08L193.36-9.08L176.60-9.08Q177.04-6.72 178.90-5.34Q180.76-3.96 183.52-3.96L183.52-3.96Q187.04-3.96 189.32-6.28L189.32-6.28L192-3.20Q190.56-1.48 188.36-0.60Q186.16 0.28 183.40 0.28L183.40 0.28Q179.88 0.28 177.20-1.12Q174.52-2.52 173.06-5.02Q171.60-7.52 171.60-10.68L171.60-10.68Q171.60-13.80 173.02-16.30Q174.44-18.80 176.96-20.20Q179.48-21.60 182.64-21.60L182.64-21.60Q185.76-21.60 188.22-20.22Q190.68-18.84 192.06-16.34Q193.44-13.84 193.44-10.56L193.44-10.56ZM182.64-17.60Q180.24-17.60 178.58-16.18Q176.92-14.76 176.56-12.40L176.56-12.40L188.68-12.40Q188.36-14.72 186.72-16.16Q185.08-17.60 182.64-17.60L182.64-17.60Z M210.88-4.72L212.28-1.16Q211.40-0.44 210.14-0.08Q208.88 0.28 207.48 0.28L207.48 0.28Q203.96 0.28 202.04-1.56Q200.12-3.40 200.12-6.92L200.12-6.92L200.12-17.20L196.60-17.20L196.60-21.20L200.12-21.20L200.12-26.08L205.12-26.08L205.12-21.20L210.84-21.20L210.84-17.20L205.12-17.20L205.12-7.04Q205.12-5.48 205.88-4.66Q206.64-3.84 208.08-3.84L208.08-3.84Q209.76-3.84 210.88-4.72L210.88-4.72Z M241.68-21.60Q244.80-21.60 247.26-20.24Q249.72-18.88 251.12-16.40Q252.52-13.92 252.52-10.68L252.52-10.68Q252.52-7.44 251.12-4.94Q249.72-2.44 247.26-1.08Q244.80 0.28 241.68 0.28L241.68 0.28Q237.36 0.28 234.84-2.60L234.84-2.60L234.84 7.76L229.84 7.76L229.84-21.36L234.60-21.36L234.60-18.56Q235.84-20.08 237.66-20.84Q239.48-21.60 241.68-21.60L241.68-21.60ZM241.12-4Q243.88-4 245.66-5.84Q247.44-7.68 247.44-10.68L247.44-10.68Q247.44-13.68 245.66-15.52Q243.88-17.36 241.12-17.36L241.12-17.36Q239.32-17.36 237.88-16.54Q236.44-15.72 235.60-14.20Q234.76-12.68 234.76-10.68L234.76-10.68Q234.76-8.68 235.60-7.16Q236.44-5.64 237.88-4.82Q239.32-4 241.12-4L241.12-4Z M263.24-18.24Q265.40-21.60 270.84-21.60L270.84-21.60L270.84-16.84Q270.20-16.96 269.68-16.96L269.68-16.96Q266.76-16.96 265.12-15.26Q263.48-13.56 263.48-10.36L263.48-10.36L263.48 0L258.48 0L258.48-21.36L263.24-21.36L263.24-18.24Z M285.68 0.28Q282.44 0.28 279.84-1.12Q277.24-2.52 275.78-5.02Q274.32-7.52 274.32-10.68L274.32-10.68Q274.32-13.84 275.78-16.32Q277.24-18.80 279.84-20.20Q282.44-21.60 285.68-21.60L285.68-21.60Q288.96-21.60 291.56-20.20Q294.16-18.80 295.62-16.32Q297.08-13.84 297.08-10.68L297.08-10.68Q297.08-7.52 295.62-5.02Q294.16-2.52 291.56-1.12Q288.96 0.28 285.68 0.28L285.68 0.28ZM285.68-4Q288.44-4 290.24-5.84Q292.04-7.68 292.04-10.68L292.04-10.68Q292.04-13.68 290.24-15.52Q288.44-17.36 285.68-17.36L285.68-17.36Q282.92-17.36 281.14-15.52Q279.36-13.68 279.36-10.68L279.36-10.68Q279.36-7.68 281.14-5.84Q282.92-4 285.68-4L285.68-4Z M321.60 0L315.96 0L310.48-7.40L304.96 0L299.44 0L307.76-10.84L299.80-21.36L305.36-21.36L310.60-14.36L315.84-21.36L321.24-21.36L313.24-10.92L321.60 0Z M326.48 0L326.48-21.36L331.48-21.36L331.48 0L326.48 0ZM329.00-24.88Q327.64-24.88 326.72-25.74Q325.80-26.60 325.80-27.88L325.80-27.88Q325.80-29.16 326.72-30.02Q327.64-30.88 329.00-30.88L329.00-30.88Q330.36-30.88 331.28-30.06Q332.20-29.24 332.20-28L332.20-28Q332.20-26.68 331.30-25.78Q330.40-24.88 329.00-24.88L329.00-24.88Z M366.20-21.60Q370.24-21.60 372.60-19.26Q374.96-16.92 374.96-12.24L374.96-12.24L374.96 0L369.96 0L369.96-11.60Q369.96-14.40 368.72-15.82Q367.48-17.24 365.16-17.24L365.16-17.24Q362.64-17.24 361.12-15.58Q359.60-13.92 359.60-10.84L359.60-10.84L359.60 0L354.60 0L354.60-11.60Q354.60-14.40 353.36-15.82Q352.12-17.24 349.80-17.24L349.80-17.24Q347.24-17.24 345.74-15.60Q344.24-13.96 344.24-10.84L344.24-10.84L344.24 0L339.24 0L339.24-21.36L344.00-21.36L344.00-18.64Q345.20-20.08 347.00-20.84Q348.80-21.60 351.00-21.60L351.00-21.60Q353.40-21.60 355.26-20.70Q357.12-19.80 358.20-18.04L358.20-18.04Q359.52-19.72 361.60-20.66Q363.68-21.60 366.20-21.60L366.20-21.60Z M382.56 0L382.56-21.36L387.56-21.36L387.56 0L382.56 0ZM385.08-24.88Q383.72-24.88 382.80-25.74Q381.88-26.60 381.88-27.88L381.88-27.88Q381.88-29.16 382.80-30.02Q383.72-30.88 385.08-30.88L385.08-30.88Q386.44-30.88 387.36-30.06Q388.28-29.24 388.28-28L388.28-28Q388.28-26.68 387.38-25.78Q386.48-24.88 385.08-24.88L385.08-24.88Z M406.76-4.72L408.16-1.16Q407.28-0.44 406.02-0.08Q404.76 0.28 403.36 0.28L403.36 0.28Q399.84 0.28 397.92-1.56Q396.00-3.40 396.00-6.92L396.00-6.92L396.00-17.20L392.48-17.20L392.48-21.20L396.00-21.20L396.00-26.08L401.00-26.08L401.00-21.20L406.72-21.20L406.72-17.20L401.00-17.20L401.00-7.04Q401.00-5.48 401.76-4.66Q402.52-3.84 403.96-3.84L403.96-3.84Q405.64-3.84 406.76-4.72L406.76-4.72Z M432.84-10.56Q432.84-10.04 432.76-9.08L432.76-9.08L416.00-9.08Q416.44-6.72 418.30-5.34Q420.16-3.96 422.92-3.96L422.92-3.96Q426.44-3.96 428.72-6.28L428.72-6.28L431.40-3.20Q429.96-1.48 427.76-0.60Q425.56 0.28 422.80 0.28L422.80 0.28Q419.28 0.28 416.60-1.12Q413.92-2.52 412.46-5.02Q411.00-7.52 411.00-10.68L411.00-10.68Q411.00-13.80 412.42-16.30Q413.84-18.80 416.36-20.20Q418.88-21.60 422.04-21.60L422.04-21.60Q425.16-21.60 427.62-20.22Q430.08-18.84 431.46-16.34Q432.84-13.84 432.84-10.56L432.84-10.56ZM422.04-17.60Q419.64-17.60 417.98-16.18Q416.32-14.76 415.96-12.40L415.96-12.40L428.08-12.40Q427.76-14.72 426.12-16.16Q424.48-17.60 422.04-17.60L422.04-17.60ZM418.56-24.28L423.96-29.76L429.84-29.76L422.88-24.28L418.56-24.28Z"/></g>
</svg>
</g><g opacity="1" transform="rotate(0 517.3535 401.9887)">
<svg width="382.5771" height="120" x="517.3535" y="401.9887" version="1.1" preserveAspectRatio="none" viewBox="3.32 -28.48 92.32000000000001 28.96">
  <g transform="matrix(1 0 0 1 0 0)" class="companyName"><path id="id-D6z1nYkh3" d="M34.88 0L28.80 0L28.76-16.80L20.52-2.96L17.60-2.96L9.40-16.44L9.40 0L3.32 0L3.32-28L8.68-28L19.16-10.60L29.48-28L34.80-28L34.88 0Z M54.92 0.48Q50.64 0.48 47.18-1.38Q43.72-3.24 41.74-6.54Q39.76-9.84 39.76-14L39.76-14Q39.76-18.16 41.74-21.46Q43.72-24.76 47.18-26.62Q50.64-28.48 54.96-28.48L54.96-28.48Q58.60-28.48 61.54-27.20Q64.48-25.92 66.48-23.52L66.48-23.52L62.32-19.68Q59.48-22.96 55.28-22.96L55.28-22.96Q52.68-22.96 50.64-21.82Q48.60-20.68 47.46-18.64Q46.32-16.60 46.32-14L46.32-14Q46.32-11.40 47.46-9.36Q48.60-7.32 50.64-6.18Q52.68-5.04 55.28-5.04L55.28-5.04Q59.48-5.04 62.32-8.36L62.32-8.36L66.48-4.52Q64.48-2.08 61.52-0.80Q58.56 0.48 54.92 0.48L54.92 0.48Z M95.64 0L88.68 0L83.28-7.80L82.96-7.80L77.32-7.80L77.32 0L70.84 0L70.84-28L82.96-28Q86.68-28 89.42-26.76Q92.16-25.52 93.64-23.24Q95.12-20.96 95.12-17.84L95.12-17.84Q95.12-14.72 93.62-12.46Q92.12-10.20 89.36-9L89.36-9L95.64 0ZM88.56-17.84Q88.56-20.20 87.04-21.46Q85.52-22.72 82.60-22.72L82.60-22.72L77.32-22.72L77.32-12.96L82.60-12.96Q85.52-12.96 87.04-14.24Q88.56-15.52 88.56-17.84L88.56-17.84Z"/></g>
</svg>
</g></svg></svg>